<svg xmlns="http://www.w3.org/2000/svg" viewBox="0 0 200 200" width="200" height="200">
  <!-- Background circle -->
  <circle cx="100" cy="100" r="90" fill="#2563eb" stroke="#1e40af" stroke-width="2"/>

  <!-- DOI document (left side) -->

  <rect x="30" y="60" width="50" height="65" rx="4" fill="#ffffff" stroke="#e5e7eb" stroke-width="1"/>
  <rect x="35" y="68" width="20" height="3" rx="1" fill="#6b7280"/>
  <rect x="60" y="68" width="15" height="3" rx="1" fill="#6b7280"/>
  <rect x="35" y="76" width="35" height="2" rx="1" fill="#d1d5db"/>
  <rect x="35" y="82" width="30" height="2" rx="1" fill="#d1d5db"/>
  <rect x="35" y="88" width="25" height="2" rx="1" fill="#d1d5db"/>

  <!-- DOI identifier -->

<text x="55" y="110" font-family="monospace" font-size="8" fill="#ef4444" text-anchor="middle" font-weight="bold">DOI</text>
<text x="55" y="120" font-family="monospace" font-size="6" fill="#6b7280" text-anchor="middle">10.1000/xyz</text>

  <!-- Arrow transformation -->

  <path d="M85 87 L105 87 M100 82 L105 87 L100 92" stroke="#fbbf24" stroke-width="3" fill="none" stroke-linecap="round" stroke-linejoin="round"/>
  <path d="M85 97 L105 97 M100 92 L105 97 L100 102" stroke="#fbbf24" stroke-width="3" fill="none" stroke-linecap="round" stroke-linejoin="round"/>
  <path d="M85 107 L105 107 M100 102 L105 107 L100 112" stroke="#fbbf24" stroke-width="3" fill="none" stroke-linecap="round" stroke-linejoin="round"/>

  <!-- BibTeX document (right side) -->

  <rect x="120" y="50" width="50" height="85" rx="4" fill="#ffffff" stroke="#e5e7eb" stroke-width="1"/>

  <!-- BibTeX content -->

<text x="125" y="62" font-family="monospace" font-size="7" fill="#059669" font-weight="bold">@article{</text>
<text x="130" y="71" font-family="monospace" font-size="6" fill="#6b7280">author = {</text>
<text x="130" y="79" font-family="monospace" font-size="6" fill="#6b7280">title = {</text>
<text x="130" y="87" font-family="monospace" font-size="6" fill="#6b7280">journal = {</text>
<text x="130" y="95" font-family="monospace" font-size="6" fill="#6b7280">year = {</text>
<text x="130" y="103" font-family="monospace" font-size="6" fill="#6b7280">volume = {</text>
<text x="130" y="111" font-family="monospace" font-size="6" fill="#6b7280">pages = {</text>
<text x="130" y="119" font-family="monospace" font-size="6" fill="#6b7280">doi = {</text>
<text x="125" y="127" font-family="monospace" font-size="7" fill="#059669" font-weight="bold">}</text>

  <!-- CLI terminal indicator -->

  <rect x="50" y="150" width="100" height="25" rx="3" fill="#1f2937" stroke="#374151" stroke-width="1"/>
  <circle cx="58" cy="158" r="2" fill="#ef4444"/>
  <circle cx="68" cy="158" r="2" fill="#fbbf24"/>
  <circle cx="78" cy="158" r="2" fill="#10b981"/>
  <text x="60" y="170" font-family="monospace" font-size="8" fill="#10b981" font-weight="bold">$ doi2bib</text>

</svg>
