<svg xmlns="http://www.w3.org/2000/svg" viewBox="0 0 200 200" width="200" height="200">
  <!-- Background rectangle -->
  <rect x="10" y="10" width="180" height="180" rx="20" fill="#2563eb" stroke="#1e40af" stroke-width="2"/>

  <!-- DOI document (left side) -->

  <rect x="30" y="50" width="50" height="65" rx="4" fill="#ffffff" stroke="#e5e7eb" stroke-width="1"/>
  <rect x="35" y="58" width="20" height="3" rx="1" fill="#6b7280"/>
  <rect x="60" y="58" width="15" height="3" rx="1" fill="#6b7280"/>
  <rect x="35" y="66" width="35" height="2" rx="1" fill="#d1d5db"/>
  <rect x="35" y="72" width="30" height="2" rx="1" fill="#d1d5db"/>
  <rect x="35" y="78" width="25" height="2" rx="1" fill="#d1d5db"/>

  <!-- DOI identifier -->

  <text x="55" y="100" font-family="monospace" font-size="8" fill="#ef4444" text-anchor="middle" font-weight="bold">DOI</text>
  <text x="55" y="110" font-family="monospace" font-size="6" fill="#6b7280" text-anchor="middle">10.1000/xyz</text>

  <!-- Arrow transformation -->

  <path d="M88 77 L108 77 M103 72 L108 77 L103 82" stroke="#fbbf24" stroke-width="3" fill="none" stroke-linecap="round" stroke-linejoin="round"/>
  <path d="M88 87 L108 87 M103 82 L108 87 L103 92" stroke="#fbbf24" stroke-width="3" fill="none" stroke-linecap="round" stroke-linejoin="round"/>
  <path d="M88 97 L108 97 M103 92 L108 97 L103 102" stroke="#fbbf24" stroke-width="3" fill="none" stroke-linecap="round" stroke-linejoin="round"/>

  <!-- BibTeX document (right side) -->

  <rect x="120" y="40" width="50" height="85" rx="4" fill="#ffffff" stroke="#e5e7eb" stroke-width="1"/>

  <!-- BibTeX content -->

  <text x="125" y="52" font-family="monospace" font-size="7" fill="#059669" font-weight="bold">@article{</text>
  <text x="130" y="61" font-family="monospace" font-size="6" fill="#6b7280">author = {</text>
  <text x="130" y="69" font-family="monospace" font-size="6" fill="#6b7280">title = {</text>
  <text x="130" y="77" font-family="monospace" font-size="6" fill="#6b7280">journal = {</text>
  <text x="130" y="85" font-family="monospace" font-size="6" fill="#6b7280">year = {</text>
  <text x="130" y="93" font-family="monospace" font-size="6" fill="#6b7280">volume = {</text>
  <text x="130" y="101" font-family="monospace" font-size="6" fill="#6b7280">pages = {</text>
  <text x="130" y="109" font-family="monospace" font-size="6" fill="#6b7280">doi = {</text>
  <text x="125" y="117" font-family="monospace" font-size="7" fill="#059669" font-weight="bold">}</text>

  <!-- CLI terminal indicator -->

  <rect x="40" y="145" width="120" height="35" rx="4" fill="#1f2937" stroke="#374151" stroke-width="1"/>
  <circle cx="50" cy="155" r="2" fill="#ef4444"/>
  <circle cx="62" cy="155" r="2" fill="#fbbf24"/>
  <circle cx="74" cy="155" r="2" fill="#10b981"/>
  <text x="55" y="172" font-family="monospace" font-size="10" fill="#10b981" font-weight="bold">$ doi2bib</text>

</svg>
